<svg width="23" height="35" viewBox="0 0 23 35" fill="none" xmlns="http://www.w3.org/2000/svg">
<path fill-rule="evenodd" clip-rule="evenodd" d="M18.7715 24.3877C18.4687 24.3877 18.2231 24.1422 18.2231 23.8394C18.2231 23.5365 18.4687 23.291 18.7715 23.291C19.0744 23.291 19.3199 23.5365 19.3199 23.8394C19.3199 24.1422 19.0744 24.3877 18.7715 24.3877Z" fill="#C9C9C9"/>
<path fill-rule="evenodd" clip-rule="evenodd" d="M19.8682 22.0918C19.5653 22.0918 19.3198 21.8463 19.3198 21.5435C19.3198 21.2406 19.5653 20.9951 19.8682 20.9951C20.171 20.9951 20.4166 21.2406 20.4166 21.5435C20.4166 21.8463 20.171 22.0918 19.8682 22.0918Z" fill="#C9C9C9"/>
<path fill-rule="evenodd" clip-rule="evenodd" d="M7.6582 24.9429C7.42423 24.3068 6.79543 23.8389 6.0789 23.8389C5.3185 23.8389 4.66046 24.2995 4.41918 24.9429H3.13235C2.83258 24.9429 2.58398 25.1915 2.58398 25.4913V30.5947C2.58398 30.8945 2.83258 31.1431 3.13235 31.1431H8.94503C9.2448 31.1431 9.4934 30.9018 9.4934 30.5947V25.4913C9.4934 25.1915 9.2448 24.9429 8.94503 24.9429H7.6582ZM3.68803 30.0464V26.0396H4.8725C5.17227 26.0396 5.42086 25.7911 5.42086 25.4913C5.42086 25.1842 5.72064 24.9356 6.08622 24.9356C6.38599 24.9356 6.66383 25.1988 6.66383 25.4913C6.66383 25.7911 6.91242 26.0396 7.21219 26.0396H8.39666V30.0464H3.68803Z" fill="#C9C9C9"/>
<path fill-rule="evenodd" clip-rule="evenodd" d="M11.4602 21.1706C11.1896 19.0502 10.6559 16.981 9.86624 14.9996L9.00348 12.7184C8.5721 11.3731 8.33813 9.89616 8.33813 8.55815V6.10148C8.47705 6.02836 8.60866 5.91869 8.70371 5.78708C8.86456 5.56774 8.91574 5.30452 8.84994 5.05593L8.41856 1.10038C8.41124 1.03458 8.38931 0.968777 8.36006 0.910285C8.27233 0.742119 8.11878 0.435037 7.78976 0.318052C7.73127 0.266871 7.65815 0.230313 7.57773 0.208379C6.53218 -0.0694596 5.47932 -0.0694596 4.43376 0.208379C4.35334 0.230313 4.28022 0.266869 4.22173 0.325362C3.91465 0.435035 3.6953 0.742121 3.68799 1.12232L3.16887 5.09249C3.16887 5.11442 3.16156 5.13635 3.16156 5.1656C3.16156 5.60429 3.41015 5.98449 3.76842 6.14534V8.57278C3.76842 9.99121 3.5052 11.4608 3.02264 12.7184L2.15256 15.0216C1.30443 17.3539 0.75606 19.8179 0.478222 22.5524C0.478222 22.5598 0.478222 22.5598 0.478222 22.5671C0.28081 24.9726 0.222318 27.0783 0.302744 29.0012V33.666C0.302744 33.9511 0.514779 34.1851 0.799929 34.2143L1.66269 34.3021C3.11769 34.4776 4.56537 34.558 6.02768 34.558C7.48268 34.558 8.9523 34.4702 10.4512 34.3021L11.3139 34.2143C11.5918 34.1851 11.8111 33.9511 11.8111 33.666V28.9866C11.8038 26.3252 11.6283 23.7223 11.4602 21.1998C11.4602 21.1925 11.4602 21.1779 11.4602 21.1706ZM4.85783 1.23199C5.62555 1.04921 6.40057 1.04921 7.16828 1.23199C7.21946 1.27586 7.27796 1.31242 7.34376 1.33435L7.75321 5.12173H4.31678H4.2656L4.7701 1.2978C4.79934 1.28317 4.82859 1.26124 4.85783 1.23199ZM4.86515 8.57278V6.21846H4.87246H7.2414V8.56547C7.2414 10.0132 7.4973 11.6144 7.95793 13.0694C7.95793 13.0767 7.96524 13.0913 7.96524 13.0986L8.09685 13.4496L6.07155 14.656L3.92927 13.4203L4.04625 13.1059C4.57269 11.7314 4.86515 10.1155 4.86515 8.57278ZM3.54176 14.4513L6.08617 15.9209L8.49898 14.4878L8.84262 15.3944C8.84262 15.3944 8.84263 15.4018 8.84994 15.4018C8.87918 15.4676 8.90112 15.5334 8.93036 15.6065L6.04962 17.4417L3.13231 15.5845C3.13962 15.5187 3.16156 15.4529 3.18349 15.3944L3.54176 14.4513ZM10.3269 33.198C7.40956 33.5344 4.61655 33.5344 1.78699 33.198C1.77968 33.198 1.77968 33.198 1.77236 33.198L1.39948 33.1615V28.9793C1.39948 28.972 1.39948 28.9647 1.39948 28.9573C1.31905 27.071 1.37754 25.0091 1.56764 22.6475C1.78699 20.4979 2.18181 18.5238 2.75942 16.652L6.03499 18.7431L9.29594 16.6593C9.80044 18.1582 10.1587 19.7156 10.3561 21.2875C10.5243 23.7808 10.6998 26.3617 10.6998 28.972V33.1615H10.7071L10.3342 33.198H10.3269Z" fill="#C9C9C9"/>
<path fill-rule="evenodd" clip-rule="evenodd" d="M22.0911 14.1445H16.4539C16.1615 14.1445 15.9202 14.3785 15.9056 14.671C15.8471 16.0455 15.869 17.4786 15.8836 18.8605C15.891 19.5551 15.9056 20.2789 15.9056 20.9881C15.9056 22.7283 16.2127 24.3661 16.7683 25.5944C17.2801 26.7277 17.9747 27.4442 18.7717 27.6709V33.4543H16.9804C16.6806 33.4543 16.432 33.7029 16.432 34.0027C16.432 34.3024 16.6806 34.551 16.9804 34.551H21.5793C21.8791 34.551 22.1277 34.3024 22.1277 34.0027C22.1277 33.7029 21.8791 33.4543 21.5793 33.4543H19.8757V27.6563C21.5208 27.1518 22.7346 24.4026 22.7346 20.9808C22.7346 20.5275 22.7419 20.0669 22.7419 19.5697C22.7565 18.0635 22.7784 16.3453 22.6395 14.649C22.6176 14.3639 22.3763 14.1445 22.0911 14.1445ZM19.3201 26.6473C18.2014 26.6473 17.0096 24.3734 17.0096 20.9881C17.0096 20.6079 17.0096 20.2204 17.0023 19.8329H21.6451C21.6378 20.2277 21.6378 20.6152 21.6378 20.9881C21.6378 24.2271 20.4168 26.6473 19.3201 26.6473ZM16.9877 18.7362C16.9731 17.5298 16.9584 16.3746 16.9877 15.2413H21.5866C21.6598 16.433 21.6598 17.6248 21.6524 18.7362H16.9877Z" fill="#C9C9C9"/>
</svg>
