<svg width="42" height="31" viewBox="0 0 42 31" fill="none" xmlns="http://www.w3.org/2000/svg">
<path fill-rule="evenodd" clip-rule="evenodd" d="M36.4029 20.6192C36.247 20.3242 35.8816 20.2114 35.5865 20.3673C35.2915 20.5231 35.1787 20.8886 35.3346 21.1836L39.9244 29.8718H23.8331C23.8141 29.778 16.8221 16.51 16.8221 16.51L17.8613 14.5702L18.9492 15.997C19.1326 16.2374 19.411 16.3821 19.7132 16.3939C20.0144 16.4064 20.3042 16.2831 20.5056 16.0576L23.126 13.1253L28.2195 19.1384C28.4096 19.3629 28.6875 19.4931 28.9816 19.4956C28.9845 19.4956 28.9874 19.4956 28.9903 19.4956C29.2813 19.4956 29.5577 19.3705 29.7498 19.1515C29.7518 19.1492 29.7538 19.1469 29.7558 19.1445L32.5324 15.8797L33.6611 18.0162C33.8169 18.3112 34.1824 18.4241 34.4774 18.2682C34.7724 18.1123 34.8852 17.7468 34.7294 17.4518L25.7942 0.538255C25.6193 0.207331 25.2782 0.00112943 24.904 0H24.901C24.5279 0 24.1868 0.204024 24.0106 0.533173L17.6671 12.3741L17.2398 13.1718L17.2397 13.172L16.1416 15.2218L12.8766 9.04159C12.7455 8.79335 12.5208 8.61531 12.2587 8.54133C12.1712 8.51664 12.0797 8.50349 11.986 8.50325C11.985 8.50325 11.9841 8.50325 11.9831 8.50325C11.9706 8.50325 11.9582 8.50406 11.9458 8.50454C11.9356 8.50486 11.9252 8.50495 11.9151 8.50559C11.9058 8.50624 11.8967 8.50745 11.8875 8.50833C11.8738 8.50962 11.8601 8.51067 11.8465 8.51253C11.8343 8.51414 11.8223 8.51656 11.8103 8.51866C11.8002 8.52044 11.79 8.52181 11.7799 8.5239C11.4894 8.58328 11.2364 8.76834 11.0927 9.0365L8.88142 13.1643L5.1622 20.1067C5.16156 20.1079 5.16107 20.1092 5.16043 20.1104L0.0804044 29.5929C-0.0888491 29.9089 0.0278868 30.1605 0.269913 30.3219C0.713613 30.5236 1.03631 30.2815 1.3018 29.8716H20.8417L39.9244 29.8718C40.0421 30.2815 40.5261 30.5639 41.0505 30.3622C41.2351 30.0562 41.3132 29.914 41.1462 29.598L36.4029 20.6192ZM24.8999 1.43236L31.9244 14.7296L28.9906 18.1792L23.9008 12.1704C23.7118 11.9474 23.4357 11.8172 23.1434 11.8134C23.1389 11.8133 23.1345 11.8133 23.13 11.8133C22.8426 11.8133 22.5687 11.9357 22.3769 12.1503L19.7645 15.0736L18.4883 13.3998L18.6713 13.0583L24.8999 1.43236ZM5.87649 21.3323L7.64018 22.8096C7.83041 22.9689 8.06049 23.0471 8.28928 23.0471C8.56672 23.0471 8.84222 22.9321 9.04253 22.7077L11.0654 20.4405L12.3683 21.7332C12.6052 21.9682 12.9877 21.9666 13.2227 21.7299C13.4577 21.493 13.4562 21.1105 13.2194 20.8755L11.7682 19.4356C11.5723 19.2413 11.3027 19.1352 11.026 19.143C10.7501 19.1514 10.4866 19.2742 10.303 19.4802L8.26887 21.76L6.45936 20.2443L11.982 9.93545L19.1086 23.4257L17.3881 25.0114L15.8143 23.4498C15.5775 23.2147 15.1949 23.2163 14.9599 23.4531C14.7249 23.6899 14.7264 24.0725 14.9633 24.3075L16.6716 26.0025C16.8687 26.198 17.1256 26.2962 17.3831 26.2962C17.6281 26.2962 17.8735 26.2072 18.0677 26.0282L19.6927 24.5304L22.5145 29.8716H1.3018L5.87649 21.3323Z" fill="#C9C9C9"/>
</svg>
