<svg width="31" height="31" viewBox="0 0 31 31" fill="none" xmlns="http://www.w3.org/2000/svg">
<path fill-rule="evenodd" clip-rule="evenodd" d="M23.515 22.1606C15.3292 22.1516 8.69571 15.518 8.6867 7.33231C8.68101 5.22888 9.12886 3.14896 9.99977 1.23432L10.5622 0L9.32585 0.556315C3.6502 3.11975 0.00155787 8.76919 -0.000487407 14.9969C-0.00336358 23.751 7.09093 30.8501 15.8452 30.853C22.0751 30.849 27.7259 27.1987 30.291 21.5214L30.8473 20.284L29.6129 20.8465C27.6984 21.7177 25.6185 22.1659 23.515 22.1606ZM2.93014 22.2935C-1.09567 15.1619 1.42213 6.1171 8.55375 2.09129C7.96101 3.77494 7.66016 5.54743 7.66406 7.33231C7.67422 16.0823 14.7649 23.173 23.515 23.1832C25.2998 23.1871 27.0723 22.8863 28.756 22.2935C27.4285 24.6451 25.484 26.5896 23.1324 27.9171C16.0008 31.9429 6.95595 29.4251 2.93014 22.2935Z" fill="#C9C9C9"/>
</svg>
