<svg width="35" height="35" viewBox="0 0 35 35" fill="none" xmlns="http://www.w3.org/2000/svg">
<path d="M15.865 29.5919V32.8963C15.865 33.5382 16.3854 34.0585 17.0272 34.0585C17.6692 34.0585 18.1894 33.5382 18.1894 32.8963V29.5919C18.1894 28.9499 17.6691 28.4297 17.0272 28.4297C16.3854 28.4297 15.865 28.9501 15.865 29.5919Z" fill="#C9C9C9"/>
<path d="M18.1894 4.46694V1.16222C18.1894 0.520363 17.6692 0 17.0272 0C16.3854 0 15.865 0.520363 15.865 1.16222V4.46694C15.865 5.1088 16.3854 5.62916 17.0272 5.62916C17.6692 5.62916 18.1894 5.1088 18.1894 4.46694Z" fill="#C9C9C9"/>
<path d="M4.98835 27.4254C4.53431 27.8791 4.53416 28.615 4.98789 29.0689C5.21491 29.2959 5.51243 29.4095 5.80996 29.4095C6.10733 29.4095 6.40455 29.2961 6.63157 29.0694L8.96903 26.7331C9.42306 26.2794 9.42322 25.5435 8.96949 25.0896C8.51545 24.6356 7.77969 24.6356 7.3258 25.0891L4.98835 27.4254Z" fill="#C9C9C9"/>
<path d="M26.7327 8.96796L29.0698 6.63175C29.5237 6.17787 29.5238 5.44211 29.0701 4.98807C28.6162 4.53403 27.8805 4.53387 27.4264 4.98791L25.0893 7.32412C24.6354 7.77785 24.6353 8.51377 25.089 8.96765C25.3158 9.19483 25.6134 9.30826 25.9109 9.30826C26.2083 9.30826 26.5056 9.19483 26.7327 8.96796Z" fill="#C9C9C9"/>
<path d="M4.46663 15.8662H1.16222C0.520364 15.8662 0 16.3866 0 17.0284C0 17.6703 0.520364 18.1906 1.16222 18.1906H4.46663C5.10849 18.1906 5.62885 17.6703 5.62885 17.0284C5.62885 16.3866 5.10849 15.8662 4.46663 15.8662Z" fill="#C9C9C9"/>
<path d="M29.5907 15.8662C28.9487 15.8662 28.4285 16.3866 28.4285 17.0284C28.4285 17.6703 28.9487 18.1906 29.5907 18.1906H32.8966C33.5387 18.1906 34.0589 17.6703 34.0589 17.0284C34.0589 16.3867 33.5387 15.8662 32.8966 15.8662H29.5907Z" fill="#C9C9C9"/>
<path d="M8.14731 9.30807C8.44469 9.30807 8.74221 9.19464 8.96908 8.96777C9.42296 8.51389 9.42296 7.77797 8.96908 7.32409L6.63287 4.98787C6.17898 4.53399 5.44307 4.53399 4.98934 4.98787C4.53545 5.44176 4.53545 6.17767 4.98934 6.6314L7.32555 8.96777C7.55241 9.19464 7.84994 9.30807 8.14731 9.30807Z" fill="#C9C9C9"/>
<path d="M25.0905 25.0894C24.6365 25.5432 24.6365 26.2792 25.0904 26.7329L27.4263 29.0691C27.6533 29.2961 27.9507 29.4096 28.2482 29.4096C28.5456 29.4096 28.8431 29.2961 29.07 29.0693C29.524 28.6154 29.524 27.8795 29.0701 27.4257L26.7342 25.0895C26.2804 24.6356 25.5444 24.6355 25.0905 25.0894Z" fill="#C9C9C9"/>
<path fill-rule="evenodd" clip-rule="evenodd" d="M7.98364 17.0296C7.98364 22.0176 12.0415 26.0756 17.0293 26.0756C22.0175 26.0756 26.0756 22.0176 26.0756 17.0296C26.0756 12.0416 22.0173 7.9834 17.0293 7.9834C12.0415 7.9834 7.98364 12.0416 7.98364 17.0296ZM10.3081 17.0296C10.3081 13.3232 13.3232 10.3078 17.0293 10.3078C20.7358 10.3078 23.7512 13.3232 23.7512 17.0296C23.7512 20.7359 20.7358 23.7511 17.0293 23.7511C13.3232 23.7511 10.3081 20.7359 10.3081 17.0296Z" fill="#C9C9C9"/>
</svg>
