<svg width="32" height="32" viewBox="0 0 32 32" fill="none" xmlns="http://www.w3.org/2000/svg">
<path d="M21.4459 10.0488L22.3379 10.9415L21.4453 11.8335L20.5532 10.9409L21.4459 10.0488Z" fill="#C9C9C9"/>
<path d="M19.66 8.26367L20.5523 9.15601L19.66 10.0484L18.7673 9.15601L19.66 8.26367Z" fill="#C9C9C9"/>
<path d="M17.8751 6.47949L18.7674 7.37183L17.8751 8.26417L16.9824 7.37183L17.8751 6.47949Z" fill="#C9C9C9"/>
<path d="M25.0152 13.6182L25.9076 14.5105L25.0152 15.4029L24.1226 14.5105L25.0152 13.6182Z" fill="#C9C9C9"/>
<path d="M23.2297 11.833L24.1224 12.7253L23.2301 13.618L22.3374 12.7257L23.2297 11.833Z" fill="#C9C9C9"/>
<path fill-rule="evenodd" clip-rule="evenodd" d="M16.1962 20.0518L15.0565 17.8166L12.5791 18.2082C12.3077 18.2532 12.038 18.117 11.9136 17.8718C11.7888 17.6262 11.8374 17.3285 12.0337 17.1356L13.8076 15.3617L12.6719 13.1266C12.5477 12.8829 12.5945 12.587 12.788 12.3938C12.9812 12.2003 13.277 12.1535 13.5204 12.2777L15.7565 13.4138L17.5301 11.6392C17.723 11.4427 18.021 11.394 18.2662 11.5188C18.5118 11.6436 18.648 11.9129 18.603 12.1843L18.2018 14.6682L20.4376 15.8079C20.6807 15.9324 20.8163 16.1992 20.7732 16.4692C20.73 16.7391 20.518 16.9505 20.2481 16.993L17.7702 17.3855L17.3813 19.8635C17.3385 20.1334 17.1268 20.3451 16.8569 20.388C16.8242 20.3935 16.7909 20.3963 16.758 20.3963C16.5207 20.396 16.3038 20.2629 16.1962 20.0518ZM15.9735 16.8328L16.4384 17.7457L16.599 16.736C16.6418 16.4661 16.8538 16.2544 17.124 16.2116L18.1334 16.0507L17.2205 15.5858C16.9767 15.4616 16.8408 15.1951 16.8834 14.9251L17.0436 13.9123L16.3213 14.6367C16.1278 14.8296 15.832 14.8764 15.5886 14.752L14.6747 14.287L15.1406 15.2003C15.2645 15.4437 15.2176 15.7395 15.0244 15.9327L14.2994 16.6584L15.3122 16.4981C15.3449 16.492 15.3778 16.4886 15.4111 16.488C15.6484 16.488 15.8656 16.6214 15.9735 16.8328Z" fill="#C9C9C9"/>
<path fill-rule="evenodd" clip-rule="evenodd" d="M28.2956 6.35516L27.8494 6.80133C27.3725 7.28602 26.6724 7.47767 26.0148 7.30358C25.3576 7.12918 24.8443 6.61584 24.6702 5.95829C24.4961 5.30105 24.6877 4.60067 25.1727 4.124L25.6189 3.67783L22.4951 0.554632C21.7559 -0.184877 20.557 -0.184877 19.8174 0.554632L17.5869 2.78549L15.5554 4.81699C15.5554 4.81699 14.2418 6.13068 13.5023 6.87019C12.7628 7.6097 0.554164 19.8189 0.554164 19.8189C-0.185345 20.5584 -0.185386 21.7564 0.554123 22.4956L1.84859 23.7903L2.6387 24.5805L3.67734 25.6194L4.38416 24.9551L4.85797 24.5805L5.68715 24.4927L7.69318 24.2803L7.487 26.5487L7.3578 27.9702L6.3988 28.252L8.13997 30.082L9.4791 31.4205C10.2183 32.1597 11.4166 32.1597 12.1561 31.4205L31.4194 12.156C32.1589 11.4165 32.1589 10.2176 31.4194 9.47835V9.47897L28.2956 6.35516ZM4.85797 24.5805L4.38416 24.9551L4.12351 25.1732L2.43527 24.3771L0.554123 22.4956C0.30762 22.2491 0.307661 20.0654 0.554164 19.8189L13.2259 7.14658C13.3443 7.02795 14.3638 6.00867 14.3638 6.00867L15.2791 5.09338L16.6946 3.67783L0.554164 19.8189C-0.184729 20.5581 -0.18477 21.7564 0.554123 22.4956L3.67734 25.6194L4.12351 25.1732C4.86271 24.4337 6.06164 24.4337 6.80084 25.1732C7.54035 25.9124 7.54035 27.1113 6.80084 27.8505L6.3988 28.252L7.26938 29.167L7.69318 24.2803L4.85797 24.5805ZM11.2632 30.5276C11.0167 30.7741 10.617 30.7741 10.3708 30.5276L8.09529 28.252C8.92231 27.0007 8.75407 25.3402 7.69318 24.2803C6.63199 23.2224 4.97395 23.0551 3.72263 23.8794L1.44649 21.6032C1.19998 21.357 1.19998 20.9574 1.44649 20.7109L20.7098 1.44697C20.8281 1.32865 20.989 1.26179 21.1563 1.26179C21.3239 1.26179 21.4844 1.32865 21.6027 1.44697L23.8783 3.71881C23.0497 4.96981 23.2167 6.63093 24.2776 7.69213C25.3385 8.75302 26.9999 8.92033 28.2509 8.09208L30.5277 10.3688C30.7739 10.615 30.7739 11.0147 30.5277 11.2612L30.5271 11.2643L11.2632 30.5276Z" fill="#C9C9C9"/>
<rect x="4.2019" y="17.0986" width="0.822863" height="15.0831" transform="rotate(-45 4.2019 17.0986)" fill="#C9C9C9"/>
</svg>
