<svg width="18" height="19" viewBox="0 0 18 19" fill="none" xmlns="http://www.w3.org/2000/svg">
<path fill-rule="evenodd" clip-rule="evenodd" d="M0.000244141 10.0329C0.000244141 7.90708 1.67462 6.17197 3.77641 6.07456L3.96294 6.07024H4.79658C5.16669 6.07024 5.46671 6.37027 5.46671 6.74037C5.46671 7.07963 5.21461 7.36001 4.88752 7.40438L4.79658 7.4105H3.96294C2.56648 7.4105 1.42473 8.50238 1.34496 9.87887L1.3405 10.0329L1.3405 14.3888C1.3405 15.7845 2.43249 16.9261 3.80888 17.0059L3.96294 17.0103H13.9077C15.304 17.0103 16.4459 15.9185 16.5257 14.5428L16.5301 14.3888V10.024C16.5301 8.63249 15.4422 7.49445 14.071 7.41494L13.9175 7.4105H13.0749C12.7048 7.4105 12.4048 7.11047 12.4048 6.74037C12.4048 6.40111 12.6569 6.12073 12.984 6.07636L13.0749 6.07024H13.9175C16.0362 6.07024 17.7659 7.73824 17.8658 9.83248L17.8704 10.024V14.3888C17.8704 16.5139 16.1958 18.2489 14.0942 18.3463L13.9077 18.3506H3.96294C1.83724 18.3506 0.101981 16.6764 0.00455806 14.5753L0.000244141 14.3888L0.000244141 10.0329ZM8.99376 0.00283241C8.80258 -0.0140762 8.60552 0.050827 8.45946 0.197542L5.85489 2.81373L5.79017 2.88903C5.5961 3.15181 5.61856 3.52405 5.857 3.76143L5.9323 3.82615C6.19508 4.02022 6.56732 3.99776 6.8047 3.75932L8.26503 2.29179L8.26503 11.4291L8.27115 11.5201C8.31552 11.8472 8.5959 12.0993 8.93516 12.0993C9.30526 12.0993 9.60529 11.7992 9.60529 11.4291L9.60529 2.2947L11.065 3.7594L11.14 3.82444C11.402 4.01963 11.7743 3.99877 12.0127 3.76135C12.2749 3.50019 12.2758 3.07588 12.0147 2.81365L9.42785 0.216198C9.31782 0.0969028 9.165 0.0176659 8.99376 0.00283241Z" fill="#4F4E54"/>
</svg>
