<svg width="32" height="31" viewBox="0 0 32 31" fill="none" xmlns="http://www.w3.org/2000/svg">
<path fill-rule="evenodd" clip-rule="evenodd" d="M23.4816 18.8602H21.6081V20.7805C20.6181 20.8792 19.6733 21.1331 18.7978 21.5168V15.0507C18.7978 13.0315 17.7128 11.1844 15.9875 10.1878V5.62059H16.9242V0H9.43011V5.62059H10.3669V10.1878C8.64154 11.1844 7.55657 13.0315 7.55657 15.0507H0V21.6705C0 22.9219 0.500982 24.1008 1.41064 24.99C2.08212 25.6463 2.91197 26.0824 3.80951 26.2617V30.1014H0V30.6426H15.9875H31.9749V30.1014C31.9749 25.2501 28.2432 21.2485 23.4816 20.7799V18.8602ZM9.43011 26.3543V16.9242H16.9242V22.612C15.6405 23.5779 14.6124 24.8657 13.9602 26.3543H9.43011ZM15.0507 1.87353V3.74706H11.3036V1.87353H15.0507ZM14.1139 9.97886L13.1772 10.9156L12.2404 9.97886V5.62059H14.1139V9.97886ZM13.1772 13.5652L14.9743 11.7681C16.1687 12.4218 16.9242 13.6763 16.9242 15.0507H9.43011C9.43011 13.6763 10.1856 12.4218 11.3801 11.7681L13.1772 13.5652ZM1.87353 16.9242H7.55657V21.6705C7.55657 23.2201 6.29588 24.4808 4.74628 24.4808C3.18906 24.4808 1.87353 23.1939 1.87353 21.6705V16.9242ZM5.68304 26.2601C6.37488 26.1191 7.01169 25.825 7.55657 25.415V30.1014H5.68304V26.2601ZM9.43011 28.2272H13.3655C13.2421 28.8334 13.1772 29.46 13.1772 30.1014H9.43011V28.2272ZM22.5448 22.6073C26.7116 22.6073 30.1014 25.9691 30.1014 30.1014H15.0507C15.0507 25.9691 18.4126 22.6073 22.5448 22.6073Z" fill="#C9C9C9"/>
</svg>
